# xmcd CD database file
#
# Track frame offsets:
#	150
#	12249
#	30483
#	45924
#	61483
#	76307
#	92578
#	115307
#	132323
#	153923
#	169727
#	187256
#
# Disc length: 2779 seconds
#
# Revision: 2
# Processed by: cddbd v1.5PL3 Copyright (c) Steve Scherf et al.
# Submitted via: jetAudio 5
#
DISCID=910ad90c
DTITLE=Anger - The Bliss
DYEAR=1900
DGENRE=
TTITLE0=Feel My Anger
TTITLE1=Another Game
TTITLE2=ICED
TTITLE3=Devil In My Mind
TTITLE4=Say (What You Wanna)
TTITLE5=Instants
TTITLE6=Upside Down
TTITLE7=Innersight
TTITLE8=Xenemy
TTITLE9=God In Me
TTITLE10=Gonna Drown
TTITLE11=Lost Soul
EXTD=
EXTT0=
EXTT1=
EXTT2=
EXTT3=
EXTT4=
EXTT5=
EXTT6=
EXTT7=
EXTT8=
EXTT9=
EXTT10=
EXTT11=
PLAYORDER=
